<svg xmlns="http://www.w3.org/2000/svg" xmlns:xlink="http://www.w3.org/1999/xlink" viewBox="-1 -1 53 18"><g fill="none" fill-rule="evenodd"><path fill="#E7364D" d="M31.903 5.147l-.82-1.383-1.454.69-.82-1.383-1.455.689-.815-1.378-1.46.689-.814-1.383-1.46.69L21.99.998l-1.46.69-3.093 9.997 3.752 1.14a1.992 1.992 0 0 1 2.197-1.365c.97.146 1.69.974 1.694 1.95v.039c.01.182-.012.364-.066.537l3.817 1.162 3.072-10.002z"/><path fill="#333" fill-rule="nonzero" d="M1.185 10.904a.438.438 0 0 1-.348-.438V3.088c0-.242.195-.438.435-.438h.074c.208.04.357.225.353.438v2.104h.798c.095-.006.191-.006.287 0 .793.14 1.372.834 1.373 1.644v2.385a1.665 1.665 0 0 1-1.66 1.665H1.19l-.005.018zm.51-.868h.802a.808.808 0 0 0 .806-.811V6.858a.805.805 0 0 0-.667-.798.75.75 0 0 0-.14 0h-.805l.004 3.976zM6.714 10.874c-.795-.136-1.373-.81-1.372-1.598V6.864c.003-.892.742-1.615 1.656-1.62.097 0 .193.009.288.026.796.136 1.376.81 1.376 1.598V9.28c0 .48-.218.937-.596 1.245a1.694 1.694 0 0 1-1.36.354m.436-4.787a.774.774 0 0 0-.144.004.81.81 0 0 0-.574.229.77.77 0 0 0-.234.56v2.412a.79.79 0 0 0 .664.776.788.788 0 0 0 .144 0c.214 0 .42-.083.572-.23a.779.779 0 0 0 .236-.558V6.864a.79.79 0 0 0-.66-.768M10.97 10.879a1.628 1.628 0 0 1-1.359-1.6V6.865a1.642 1.642 0 0 1 1.935-1.595c.795.127 1.38.801 1.385 1.595v2.414c0 .481-.216.937-.59 1.246a1.667 1.667 0 0 1-1.35.354m.434-4.79a.76.76 0 0 0-.139 0 .798.798 0 0 0-.569.228.775.775 0 0 0-.232.56v2.415a.788.788 0 0 0 .658.776.773.773 0 0 0 .143 0 .762.762 0 0 0 .78-.79V6.866a.788.788 0 0 0-.667-.768"/><path fill="#333" d="M14.464 10.878a.434.434 0 0 1-.347-.434v-7.37c0-.112.043-.221.121-.303a.434.434 0 0 1 .304-.121h.074c.207.04.355.223.351.433v4.335l1.953-2.167a.434.434 0 0 1 .603-.03c.166.158.18.419.03.594l-1.462 1.66 1.528 2.787c.056.096.07.21.039.317a.434.434 0 0 1-.208.251.434.434 0 0 1-.282.048.434.434 0 0 1-.295-.204l-1.385-2.506-.52.577v1.734a.433.433 0 0 1-.13.303.434.434 0 0 1-.296.122h-.078M33.09 10.88a1.601 1.601 0 0 1-1.132-.761.411.411 0 0 1-.04-.316.43.43 0 0 1 .2-.256.463.463 0 0 1 .594.158c.111.181.3.306.517.341.232.04.47-.025.647-.175a.685.685 0 0 0 .232-.572.678.678 0 0 0-.317-.538l-1.173-.8a1.516 1.516 0 0 1-.669-1.127 1.45 1.45 0 0 1 .531-1.183c.348-.31.822-.455 1.293-.393.474.069.89.34 1.128.739.056.096.07.21.04.316a.43.43 0 0 1-.2.256.457.457 0 0 1-.593-.153.71.71 0 0 0-.513-.338.716.716 0 0 0-.593.167.672.672 0 0 0-.219.538.636.636 0 0 0 .304.5l1.172.786c.404.272.655.706.683 1.179.036.469-.159.927-.527 1.238-.359.322-.85.47-1.337.402l-.027-.009zM36.287 10.89a.434.434 0 0 1-.352-.433V3.084c0-.24.194-.434.434-.434h.078a.434.434 0 0 1 .348.434V5.16h.804a1.65 1.65 0 0 1 1.656 1.653v3.656c0 .24-.195.434-.435.434h-.074a.434.434 0 0 1-.352-.434V6.84a.807.807 0 0 0-.66-.794.797.797 0 0 0-.144 0h-.804v4.424c0 .24-.194.434-.434.434h-.074"/><path fill="#333" fill-rule="nonzero" d="M41.576 10.878c-.797-.136-1.377-.81-1.373-1.596v-2.41c-.002-.888.734-1.612 1.65-1.622.095-.008.192-.008.289 0 .798.137 1.38.81 1.381 1.597v2.41c.007.434-.166.853-.48 1.163a1.697 1.697 0 0 1-1.485.458m.439-4.78a.75.75 0 0 0-.14 0 .82.82 0 0 0-.575.229.772.772 0 0 0-.237.558v2.41a.8.8 0 0 0 .807.779.842.842 0 0 0 .575-.23.78.78 0 0 0 .24-.562v-2.41a.794.794 0 0 0-.657-.77"/><path fill="#333" d="M50.152 5.745a.424.424 0 0 0-.044-.308.432.432 0 0 0-.276-.193h-.06a.432.432 0 0 0-.433.313s-.458 1.836-.813 3.215v.03-.03c-.346-1.379-.808-3.194-.813-3.215a.4.4 0 0 0-.324-.308h-.078a.431.431 0 0 0-.402.316s-.458 1.837-.812 3.215v.03-.03c-.346-1.378-.809-3.197-.813-3.215a.43.43 0 0 0-.497-.308.428.428 0 0 0-.307.492l1.223 4.847a.43.43 0 0 0 .333.308h.07a.401.401 0 0 0 .401-.313s.467-1.836.813-3.219v-.03.03c.359 1.396.813 3.22.813 3.22a.43.43 0 0 0 .333.307h.069a.401.401 0 0 0 .402-.312l1.215-4.842z"/><path fill="#FFF" d="M20.847 10.9a.393.393 0 0 1-.326-.397V5.671a.396.396 0 0 1 .403-.427h3.495a1.563 1.563 0 0 1 1.555 1.565v3.656a.426.426 0 0 1-.12.285.43.43 0 0 1-.282.115h-.073a.397.397 0 0 1-.33-.396V6.848a.76.76 0 0 0-.621-.75.671.671 0 0 0-.133 0h-.763v4.405a.426.426 0 0 1-.12.286.43.43 0 0 1-.282.115h-.073a.397.397 0 0 1-.33-.397v-4.41h-1.525v4.406a.426.426 0 0 1-.12.286.43.43 0 0 1-.283.115h-.072M26.544 13.022a.394.394 0 0 1-.332-.397.39.39 0 0 1 .116-.287.4.4 0 0 1 .29-.115.763.763 0 0 0 .733-.56l.432-1.38-1.369-4.527a.426.426 0 0 1 .255-.5.433.433 0 0 1 .505.265L28.193 8.9l1.027-3.375c.073-.188.269-.3.47-.27h.026a.426.426 0 0 1 .277.51L28.58 10.42l-.431 1.486a1.632 1.632 0 0 1-.575.807 1.578 1.578 0 0 1-.945.312h-.073"/></g></svg>